HIERARCHY
ROOT joint_Root
{
	OFFSET 0.0 0.0 0.0
	CHANNELS 6 Xposition Yposition Zposition Zrotation Xrotation Yrotation 
	JOINT Hips
	{
		OFFSET 4.5925 91.4895 -427.239
		CHANNELS 6 Xposition Yposition Zposition Zrotation Xrotation Yrotation 
		JOINT Spine
		{
			OFFSET 15.7357 0.0 0.0
			CHANNELS 6 Xposition Yposition Zposition Zrotation Xrotation Yrotation 
			JOINT Chest
			{
				OFFSET 8.98455 -0.406207 0.0
				CHANNELS 6 Xposition Yposition Zposition Zrotation Xrotation Yrotation 
				JOINT Neck
				{
					OFFSET 16.3773 0.0 0.0
					CHANNELS 6 Xposition Yposition Zposition Zrotation Xrotation Yrotation 
					JOINT Head
					{
						OFFSET 6.45672 0.0 0.0
						CHANNELS 6 Xposition Yposition Zposition Zrotation Xrotation Yrotation 
						End Site
						{
							OFFSET 0.0 0.0 0.0
						}
					}
				}
				JOINT Shoulder_L
				{
					OFFSET 12.9942 -0.242716 4.98039
					CHANNELS 6 Xposition Yposition Zposition Zrotation Xrotation Yrotation 
					JOINT UpperArm_L
					{
						OFFSET 5.34809 0.0 0.0
						CHANNELS 6 Xposition Yposition Zposition Zrotation Xrotation Yrotation 
						JOINT LowerArm_L
						{
							OFFSET 24.3286 1.87007e-05 0.0
							CHANNELS 6 Xposition Yposition Zposition Zrotation Xrotation Yrotation 
							JOINT Hand_L
							{
								OFFSET 22.2916 0.0 0.0
								CHANNELS 6 Xposition Yposition Zposition Zrotation Xrotation Yrotation 
								End Site
								{
									OFFSET 0.0 0.0 0.0
								}
							}
						}
					}
				}
				JOINT Shoulder_R
				{
					OFFSET 12.9945 -0.242716 -4.98039
					CHANNELS 6 Xposition Yposition Zposition Zrotation Xrotation Yrotation 
					JOINT UpperArm_R
					{
						OFFSET -5.34813 0.0 0.0
						CHANNELS 6 Xposition Yposition Zposition Zrotation Xrotation Yrotation 
						JOINT LowerArm_R
						{
							OFFSET -24.3289 0.000322201 0.0
							CHANNELS 6 Xposition Yposition Zposition Zrotation Xrotation Yrotation 
							JOINT Hand_R
							{
								OFFSET -22.2915 -0.000108084 0.0
								CHANNELS 6 Xposition Yposition Zposition Zrotation Xrotation Yrotation 
								End Site
								{
									OFFSET 0.0 0.0 0.0
								}
							}
						}
					}
				}
			}
		}
		JOINT UpperLeg_L
		{
			OFFSET -2.19248 -6.46944 0.0
			CHANNELS 6 Xposition Yposition Zposition Zrotation Xrotation Yrotation 
			JOINT LowerLeg_L
			{
				OFFSET 39.0811 0.0 -1.23785e-05
				CHANNELS 6 Xposition Yposition Zposition Zrotation Xrotation Yrotation 
				JOINT Foot_L
				{
					OFFSET 40.9854 0.0 -1.26872e-05
					CHANNELS 6 Xposition Yposition Zposition Zrotation Xrotation Yrotation 
					JOINT Toes_L
					{
						OFFSET 11.7543 0.0 0.0
						CHANNELS 6 Xposition Yposition Zposition Zrotation Xrotation Yrotation 
						End Site
						{
							OFFSET 0.0 0.0 0.0
						}
					}
				}
			}
		}
		JOINT UpperLeg_R
		{
			OFFSET -2.19251 6.46944 0.0
			CHANNELS 6 Xposition Yposition Zposition Zrotation Xrotation Yrotation 
			JOINT LowerLeg_R
			{
				OFFSET -39.0811 -0.00228153 -0.0401928
				CHANNELS 6 Xposition Yposition Zposition Zrotation Xrotation Yrotation 
				JOINT Foot_R
				{
					OFFSET -40.9854 0.0 0.0
					CHANNELS 6 Xposition Yposition Zposition Zrotation Xrotation Yrotation 
					JOINT Toes_R
					{
						OFFSET -11.7543 0.0 0.0
						CHANNELS 6 Xposition Yposition Zposition Zrotation Xrotation Yrotation 
						End Site
						{
							OFFSET 0.0 0.0 0.0
						}
					}
				}
			}
		}
	}
}
MOTION
Frames:	4
Frame Time:	0.0333333
0.000000 0.000000 0.000000 0.000000 0.000000 -0.000000 0.784400 77.965300 -1.239120 86.808200 1.094420 11.511000 15.735700 0.000005 -0.000001 96.602400 80.641600 -98.326800 8.984550 -0.406207 -0.000000 10.865900 2.089760 -3.646160 16.377300 -0.000001 -0.000001 -2.368490 -8.051980 1.154180 6.456720 -0.000001 -0.000000 -1.372460 -13.469500 9.766320 12.994200 -0.242716 4.980390 -92.195300 6.483300 -71.247600 5.348090 -0.000007 -0.000001 -70.371000 20.980500 -6.052440 24.328600 0.000019 0.000005 -0.950849 -2.528340 -20.618900 22.291600 -0.000001 0.000005 15.772700 5.292220 0.288502 12.994500 -0.242716 -4.980390 88.703200 7.900180 -80.647900 -5.348130 -0.000001 -0.000004 -66.732900 33.203300 -4.779670 -24.328900 0.000322 -0.000009 -0.901626 -1.714070 -27.720500 -22.291500 -0.000108 -0.000004 19.146400 5.429080 -3.907430 -2.192480 -6.469440 -0.000000 -172.296000 -12.718000 -20.910600 39.081100 -0.000007 -0.000012 -0.373754 0.107744 73.920200 40.985400 -0.000006 -0.000013 5.263370 7.023580 -91.791500 11.754300 -0.000000 0.000003 -0.000259 -0.002297 -16.663500 -2.192510 6.469440 -0.000001 177.290000 16.049800 160.488000 -39.081100 -0.002282 -0.040193 0.149807 -0.045909 72.626200 -40.985400 0.000008 0.000006 4.861000 2.123780 -90.480400 -11.754300 -0.000006 -0.000006 -0.641321 -0.788692 -16.954800
0.000000 0.000000 0.000000 0.000000 0.000000 -0.000000 1.485200 79.758800 -1.014100 87.285500 -1.941250 11.001100 15.735700 0.000005 -0.000001 95.783000 81.272100 -97.075300 8.984550 -0.406207 -0.000000 9.625150 1.727600 -2.728220 16.377300 -0.000001 -0.000001 -2.225750 -7.031250 1.253010 6.456720 -0.000001 -0.000000 -0.820281 -11.466700 8.560250 12.994200 -0.242716 4.980390 -92.009500 5.820360 -70.914900 5.348090 -0.000007 -0.000001 -68.789300 18.135100 -5.992860 24.328600 0.000019 0.000005 0.106762 0.316999 -18.650000 22.291600 -0.000001 0.000005 16.887200 5.251330 1.397460 12.994500 -0.242716 -4.980390 88.728000 7.734040 -80.630600 -5.348130 -0.000001 -0.000004 -66.599100 33.087100 -5.090010 -24.328900 0.000322 -0.000009 -0.482576 -0.947200 -26.947700 -22.291500 -0.000108 -0.000004 18.842800 5.426640 -3.824100 -2.192480 -6.469440 -0.000000 -173.198000 -14.319900 -18.407800 39.081100 -0.000007 -0.000012 -0.339051 0.128115 69.301300 40.985400 -0.000006 -0.000013 4.560390 5.641030 -89.904100 11.754300 -0.000000 0.000003 -0.000279 -0.002451 -16.669100 -2.192510 6.469440 -0.000001 176.923000 13.423500 161.817000 -39.081100 -0.002282 -0.040193 0.113951 -0.044142 68.281000 -40.985400 0.000008 0.000006 4.600210 3.092530 -88.154400 -11.754300 -0.000006 -0.000006 -0.500660 -0.614952 -16.953600
0.000000 0.000000 0.000000 0.000000 0.000000 -0.000000 2.228270 82.174600 -0.673803 87.927600 -5.029100 10.211400 15.735700 0.000005 -0.000001 94.533300 82.148300 -95.260900 8.984550 -0.406207 -0.000000 7.897880 1.235120 -1.539150 16.377300 -0.000001 -0.000001 -1.373450 -5.602810 1.075170 6.456720 -0.000001 -0.000000 -0.048214 -8.853900 6.760930 12.994200 -0.242716 4.980390 -91.536000 4.315090 -70.384000 5.348090 -0.000007 -0.000001 -63.772500 13.764100 -9.088570 24.328600 0.000019 0.000005 1.942070 6.154420 -17.552800 22.291600 -0.000001 0.000005 14.443400 5.258660 1.196810 12.994500 -0.242716 -4.980390 88.729700 7.329430 -80.139200 -5.348130 -0.000001 -0.000004 -66.729700 32.578300 -4.703300 -24.328900 0.000322 -0.000009 -0.635283 -1.242130 -27.051300 -22.291500 -0.000108 -0.000004 18.621200 5.423630 -3.721570 -2.192480 -6.469440 -0.000000 -174.460000 -15.768400 -15.266800 39.081100 -0.000007 -0.000012 -0.324782 0.168275 62.611500 40.985400 -0.000006 -0.000013 3.776920 4.088260 -87.011000 11.754300 -0.000000 0.000003 -0.000238 -0.002144 -16.658000 -2.192510 6.469440 -0.000001 176.083000 11.794300 163.806000 -39.081100 -0.002282 -0.040193 0.079702 -0.040554 62.076000 -40.985400 0.000008 0.000006 4.626020 5.140360 -84.766000 -11.754300 -0.000006 -0.000006 -0.295651 -0.367215 -17.232900
0.000000 0.000000 0.000000 0.000000 0.000000 -0.000000 2.832090 84.815800 -0.156686 88.747900 -8.094860 9.834240 15.735700 0.000005 -0.000001 93.877500 82.953700 -93.963800 8.984550 -0.406207 -0.000000 6.295710 0.951360 -0.224757 16.377300 -0.000001 -0.000001 0.266307 -4.154560 0.382640 6.456720 -0.000001 -0.000000 0.450408 -6.152500 4.353370 12.994200 -0.242716 4.980390 -90.966300 2.649040 -69.950900 5.348090 -0.000007 -0.000001 -56.031300 4.543370 -14.542300 24.328600 0.000019 0.000005 3.218400 10.368300 -17.350400 22.291600 -0.000001 0.000005 10.486300 5.261760 1.120740 12.994500 -0.242716 -4.980390 88.715400 6.749070 -79.197400 -5.348130 -0.000001 -0.000004 -66.860300 31.517000 -3.666370 -24.328900 0.000322 -0.000009 -0.593369 -1.116340 -27.950400 -22.291500 -0.000108 -0.000004 17.869800 5.424400 -3.747910 -2.192480 -6.469440 -0.000000 -175.618000 -17.353500 -10.939100 39.081100 -0.000007 -0.000012 -0.284582 0.204041 54.360800 40.985400 -0.000006 -0.000013 3.096040 2.821470 -83.444100 11.754300 -0.000000 0.000003 -0.000212 -0.001942 -16.650700 -2.192510 6.469440 -0.000001 174.903000 10.789400 166.895000 -39.081100 -0.002282 -0.040193 0.050074 -0.033266 54.620900 -40.985400 0.000008 0.000006 4.686730 7.724750 -80.789700 -11.754300 -0.000006 -0.000006 -0.077257 -0.114930 -17.674300
